# xmcd
#
# Track frame offsets:
#	150
#	16530
#	26007
#	36207
#	43017
#	51653
#	60584
#	70360
#	83490
#	90599
#	93450
#	99996
#	111143
#	119392
#	134270
#	141682
#	149819
#	158614
#	162865
#	167747
#	175973
#	199599
#	213475
#	225650
#	235149
#	242998
#	256185
#	265370
#	278625
#	282389
#	295043
#	301376
#
# Disc length: 4149 seconds
#
# Revision: 0
# Processed by: cddbd v1.5.2PL0 Copyright (c) Steve Scherf et al.
# Submitted via: EZCDAudioConverter 2.0.5.1
#
DISCID=d2103320
DTITLE=Claude Sirois - Rendez-vous - 25 ans de carriere soliste 1977-2002
DYEAR=2002
DGENRE=Instrumental
TTITLE0=Recuerdos de la Alhambra (Tarrega)
TTITLE1=Rosita Polka (Tarrega)
TTITLE2=Il neige sur Kamouraska (A.-P. Gagnon)
TTITLE3=A la claire fontaine (Traditionnel)
TTITLE4=Lagrima (Tarrega)
TTITLE5=Adelita (Tarrega)
TTITLE6=Gros Pierre (G. Vigneault)
TTITLE7=Le classique (C. Sirois)
TTITLE8=Prelude No 1 (Ponce)
TTITLE9=Prelude No 2 (Ponce)
TTITLE10=Prelude No 3 (Ponce)
TTITLE11=La chanson du pharmacien (F. Leclerc)
TTITLE12=L'oiseau s'en va (C. Dubois)
TTITLE13=Rame Sebastien (C. Sirois)
TTITLE14=Femme ou fille (C. Dubois)
TTITLE15=Etude No 1 (Villa-Lobos)
TTITLE16=El Abejorro (Pujol)
TTITLE17=Welcome soleil (Gosselin)
TTITLE18=Le lac de Come (Traditionnel)
TTITLE19=Prelude en D mineur (Bach)
TTITLE20=Menuet en sol - Tango traditionnel (Traditionnel)
TTITLE21=La lune d'automne (Rivard)
TTITLE22=Ragtime pour plus tard (F. Dompierre)
TTITLE23=Etude en La mineur Opus 60 (Carcassi)
TTITLE24=Etude en La majeur Opus 60 (Carcassi)
TTITLE25=Seulement qu'une aventure (Rivard, Cole)
TTITLE26=Dans la prison de Londre (Traditionnel)
TTITLE27=Valse (Ponce)
TTITLE28=Soir d'hiver (C. Leveille)
TTITLE29=Danse Emilia (C. Sirois)
TTITLE30=Le rendez-vous (C. Leveille)
TTITLE31=Delire (solo) (C. Sirois)
EXTD=
EXTT0=
EXTT1=
EXTT2=
EXTT3=
EXTT4=
EXTT5=
EXTT6=
EXTT7=
EXTT8=
EXTT9=
EXTT10=
EXTT11=
EXTT12=
EXTT13=
EXTT14=
EXTT15=
EXTT16=
EXTT17=
EXTT18=
EXTT19=
EXTT20=
EXTT21=
EXTT22=
EXTT23=
EXTT24=
EXTT25=
EXTT26=
EXTT27=
EXTT28=
EXTT29=
EXTT30=
EXTT31=
PLAYORDER=
